<?xml version="1.0" encoding="UTF-8" standalone="no"?>
<svg
   width="171.341"
   height="222.769"
   viewBox="0 0 171.341 222.769"
   version="1.1"
  
  
  
   xmlns="http://www.w3.org/2000/svg"
  >
  
  <defs>
    <clipPath
       id="clip-0">
      <path
         clip-rule="nonzero"
         d="M 133 137 L 139 137 L 139 142 L 133 142 Z M 133 137 " />
    </clipPath>
    <clipPath
       id="clip-1">
      <path
         clip-rule="nonzero"
         d="M 133.96875 139.855469 C 133.96875 141.015625 134.878906 141.894531 136.023438 141.894531 C 137.199219 141.894531 138.082031 141.015625 138.082031 139.855469 C 138.082031 138.742188 137.199219 137.839844 136.023438 137.839844 C 134.878906 137.839844 133.96875 138.742188 133.96875 139.855469 M 134.484375 139.855469 C 134.484375 138.976562 135.140625 138.253906 136.023438 138.253906 C 136.925781 138.253906 137.570312 138.976562 137.570312 139.878906 C 137.570312 140.761719 136.925781 141.484375 136.03125 141.484375 C 135.140625 141.484375 134.484375 140.761719 134.484375 139.855469 M 135.238281 138.898438 L 135.238281 140.917969 L 135.722656 140.917969 L 135.722656 140.113281 L 135.9375 140.113281 C 136.191406 140.113281 136.308594 140.210938 136.347656 140.425781 C 136.414062 140.660156 136.445312 140.839844 136.503906 140.917969 L 137.003906 140.917969 C 136.964844 140.839844 136.925781 140.722656 136.859375 140.425781 C 136.796875 140.132812 136.691406 140.015625 136.484375 139.9375 L 136.484375 139.898438 C 136.730469 139.839844 136.914062 139.644531 136.914062 139.445312 C 136.914062 139.230469 136.828125 139.074219 136.71875 139.015625 C 136.5625 138.898438 136.398438 138.859375 136.015625 138.859375 C 135.691406 138.859375 135.4375 138.878906 135.238281 138.898438 M 135.722656 139.210938 C 135.769531 139.191406 135.859375 139.191406 135.976562 139.191406 C 136.269531 139.191406 136.414062 139.308594 136.414062 139.484375 C 136.414062 139.703125 136.210938 139.78125 135.945312 139.78125 L 135.722656 139.78125 Z M 135.722656 139.210938 " />
    </clipPath>
  </defs>
  <path
     fill-rule="evenodd"
     fill="rgb(0%, 0%, 0%)"
     fill-opacity="1"
     d="M 94.527344 98.777344 L 92.210938 94.761719 L 92.066406 94.515625 L 92.210938 94.265625 L 107.605469 67.601562 L 108.1875 66.597656 L 108.332031 66.347656 L 130.941406 66.347656 L 130.511719 67.09375 L 128.769531 70.109375 L 103.800781 113.355469 L 103.371094 114.101562 L 102.941406 113.355469 L 100.625 109.34375 L 100.480469 109.09375 L 100.625 108.84375 L 122.261719 71.367188 L 111.214844 71.367188 L 95.386719 98.777344 L 94.957031 99.523438 Z M 81.3125 113.15625 L 84.925781 106.890625 L 84.964844 106.824219 L 85.460938 106.328125 L 85.789062 106.890625 L 88.097656 110.898438 L 88.292969 111.230469 L 88.0625 111.457031 L 84.628906 117.40625 L 90.15625 126.980469 L 95.679688 117.40625 L 94.789062 115.863281 L 90.867188 109.066406 L 90.390625 108.242188 L 90.390625 108.238281 L 90.050781 107.652344 L 89.726562 107.089844 L 85.90625 100.484375 L 85.90625 100.480469 L 69.097656 71.367188 L 58.046875 71.367188 L 79.683594 108.84375 L 79.828125 109.09375 L 79.683594 109.34375 L 77.371094 113.355469 L 76.9375 114.101562 L 76.507812 113.355469 L 51.542969 70.109375 L 49.800781 67.09375 L 49.367188 66.347656 L 71.980469 66.347656 L 72.125 66.597656 L 72.703125 67.601562 L 88.929688 95.703125 L 88.929688 95.707031 L 90.585938 98.574219 L 92.902344 102.589844 L 99 113.15625 L 101.3125 117.167969 L 101.457031 117.414062 L 101.3125 117.664062 L 92.320312 133.238281 L 92.320312 133.242188 L 90.585938 136.246094 L 90.15625 136.992188 L 89.722656 136.246094 L 87.988281 133.242188 L 78.996094 117.664062 L 78.851562 117.417969 L 78.996094 117.167969 Z M 81.3125 113.15625 " />
  <path
     fill-rule="nonzero"
     fill="rgb(0%, 0%, 0%)"
     fill-opacity="1"
     d="M 51.101562 151.792969 C 53.289062 151.792969 54.640625 150.6875 54.640625 148.910156 C 54.640625 147.253906 53.367188 146.6875 51.386719 146.261719 C 50.074219 145.980469 49.648438 145.800781 49.648438 145.257812 C 49.648438 144.820312 50.046875 144.484375 50.753906 144.484375 C 51.578125 144.484375 52.464844 144.808594 53.277344 145.425781 L 54.394531 143.855469 C 53.457031 143.070312 52.296875 142.644531 50.820312 142.644531 C 48.800781 142.644531 47.4375 143.78125 47.4375 145.476562 C 47.4375 147.253906 48.839844 147.765625 50.730469 148.191406 C 52.015625 148.5 52.425781 148.617188 52.425781 149.144531 C 52.425781 149.617188 52.003906 149.953125 51.179688 149.953125 C 50.097656 149.953125 49.132812 149.542969 48.273438 148.835938 L 47.039062 150.3125 C 48.105469 151.277344 49.535156 151.792969 51.101562 151.792969 M 59.921875 151.636719 L 62.132812 151.636719 L 62.132812 148.589844 L 65.554688 142.800781 L 63.109375 142.800781 L 61.027344 146.53125 L 59.035156 142.800781 L 56.5 142.800781 L 59.921875 148.589844 Z M 67.851562 151.636719 L 70.050781 151.636719 L 70.050781 146.417969 L 73.898438 151.636719 L 76.097656 151.636719 L 76.097656 142.800781 L 73.898438 142.800781 L 73.898438 148.023438 L 70.050781 142.800781 L 67.851562 142.800781 Z M 79.28125 151.636719 L 82.507812 151.636719 C 85.542969 151.636719 87.679688 149.796875 87.679688 147.214844 C 87.679688 144.628906 85.542969 142.800781 82.507812 142.800781 L 79.28125 142.800781 Z M 81.480469 149.644531 L 81.480469 144.796875 L 82.84375 144.796875 C 84.347656 144.796875 85.429688 145.800781 85.429688 147.214844 C 85.429688 148.628906 84.347656 149.644531 82.84375 149.644531 Z M 90.519531 151.636719 L 92.714844 151.636719 L 92.714844 142.800781 L 90.519531 142.800781 Z M 100.261719 151.792969 C 101.636719 151.792969 102.898438 151.199219 103.773438 150.261719 L 102.175781 148.847656 C 101.703125 149.425781 101.019531 149.796875 100.261719 149.796875 C 98.910156 149.796875 97.765625 148.617188 97.765625 147.214844 C 97.765625 145.824219 98.910156 144.640625 100.261719 144.640625 C 101.007812 144.640625 101.703125 145.015625 102.164062 145.59375 L 103.773438 144.164062 C 102.898438 143.238281 101.636719 142.644531 100.261719 142.644531 C 97.691406 142.644531 95.515625 144.730469 95.515625 147.214844 C 95.515625 149.695312 97.691406 151.792969 100.261719 151.792969 M 112.589844 151.636719 L 115.0625 151.636719 L 111.5625 142.800781 L 109.09375 142.800781 L 105.59375 151.636719 L 108.0625 151.636719 L 108.578125 150.351562 L 112.078125 150.351562 Z M 109.257812 148.628906 L 110.328125 145.914062 L 111.394531 148.628906 Z M 118.796875 151.636719 L 121 151.636719 L 121 144.769531 L 123.671875 144.769531 L 123.671875 142.800781 L 116.109375 142.800781 L 116.109375 144.769531 L 118.796875 144.769531 Z M 133.261719 144.769531 L 133.261719 142.800781 L 126.304688 142.800781 L 126.304688 151.636719 L 133.261719 151.636719 L 133.261719 149.671875 L 128.503906 149.671875 L 128.503906 148.113281 L 132.828125 148.113281 L 132.828125 146.144531 L 128.503906 146.144531 L 128.503906 144.769531 Z M 133.261719 144.769531 " />
  <path
     fill-rule="nonzero"
     fill="rgb(0%, 0%, 0%)"
     fill-opacity="1"
     d="M 133.96875 139.859375 C 133.96875 141.015625 134.878906 141.894531 136.023438 141.894531 C 137.199219 141.894531 138.082031 141.015625 138.082031 139.859375 C 138.082031 138.742188 137.199219 137.839844 136.023438 137.839844 C 134.878906 137.839844 133.96875 138.742188 133.96875 139.859375 M 134.484375 139.859375 C 134.484375 138.976562 135.144531 138.253906 136.023438 138.253906 C 136.925781 138.253906 137.570312 138.976562 137.570312 139.878906 C 137.570312 140.757812 136.925781 141.484375 136.03125 141.484375 C 135.144531 141.484375 134.484375 140.757812 134.484375 139.859375 M 135.238281 138.898438 L 135.238281 140.917969 L 135.722656 140.917969 L 135.722656 140.113281 L 135.9375 140.113281 C 136.191406 140.113281 136.308594 140.210938 136.347656 140.425781 C 136.414062 140.660156 136.445312 140.835938 136.503906 140.917969 L 137.003906 140.917969 C 136.964844 140.835938 136.925781 140.71875 136.859375 140.425781 C 136.796875 140.132812 136.691406 140.015625 136.484375 139.9375 L 136.484375 139.898438 C 136.730469 139.839844 136.914062 139.644531 136.914062 139.445312 C 136.914062 139.230469 136.828125 139.074219 136.71875 139.015625 C 136.5625 138.898438 136.398438 138.859375 136.015625 138.859375 C 135.691406 138.859375 135.4375 138.878906 135.238281 138.898438 M 135.722656 139.210938 C 135.769531 139.191406 135.859375 139.191406 135.976562 139.191406 C 136.269531 139.191406 136.414062 139.308594 136.414062 139.484375 C 136.414062 139.703125 136.210938 139.78125 135.945312 139.78125 L 135.722656 139.78125 Z M 135.722656 139.210938 " />
  <g
     clip-path="url(#clip-0)">
    <g
       clip-path="url(#clip-1)">
      <path
         fill-rule="nonzero"
         fill="rgb(0%, 0%, 0%)"
         fill-opacity="1"
         d="M 137.054688 136.078125 L 139.835938 140.878906 L 134.996094 143.679688 L 132.222656 138.878906 Z M 137.054688 136.078125 " />
    </g>
  </g>
</svg>

